<svg width="22" height="20" viewBox="0 0 22 20" fill="none" xmlns="http://www.w3.org/2000/svg">
<path d="M6.05305 1.4998C4.68305 2.8798 4.68305 5.0998 6.05305 6.4698L14.543 14.9498C15.123 15.5398 15.123 16.4998 14.543 17.0698C13.953 17.6598 13.003 17.6598 12.413 17.0698L8.17305 12.8298L9.23305 11.7698L5.70305 8.2298L5.34305 8.5898L3.93305 7.1698C3.54305 6.7798 2.91305 6.7798 2.50305 7.1698L1.10305 8.5898C0.713047 8.9998 0.713047 9.6098 1.10305 9.9998L2.50305 11.4098L2.16305 11.7698L5.70305 15.2998L6.76305 14.2398L11.003 18.4998C12.373 19.8498 14.583 19.8498 15.953 18.4998C17.323 17.1198 17.323 14.8998 15.953 13.5398L7.46305 5.0498C6.88305 4.4598 6.88305 3.4998 7.46305 2.9298C8.05305 2.3398 9.00305 2.3398 9.59305 2.9298L13.833 7.1698L12.773 8.2298L16.303 11.7698L16.663 11.4098L18.073 12.8298C18.463 13.2198 19.103 13.2198 19.503 12.8298L20.903 11.4098C21.293 10.9998 21.293 10.3898 20.903 9.9998L19.503 8.5898L19.843 8.2298L16.303 4.6998L15.243 5.7598L11.003 1.4998C9.63305 0.149805 7.42305 0.149805 6.05305 1.4998ZM1.81305 9.2898L3.22305 7.8798L4.64305 9.2898L3.22305 10.7098M17.363 10.7098L18.783 9.2898L20.193 10.7098L18.783 12.1198L17.363 10.7098Z" fill="black"/>
</svg>
