<svg width="20" height="21" viewBox="0 0 20 21" fill="none" xmlns="http://www.w3.org/2000/svg">
<path d="M15.9 15.8446C15.64 15.0446 14.89 14.4546 14 14.4546H13V11.4546C13 11.1894 12.8946 10.935 12.7071 10.7475C12.5196 10.5599 12.2652 10.4546 12 10.4546H6V8.45459H8C8.26522 8.45459 8.51957 8.34923 8.70711 8.1617C8.89464 7.97416 9 7.71981 9 7.45459V5.45459H11C11.5304 5.45459 12.0391 5.24388 12.4142 4.8688C12.7893 4.49373 13 3.98502 13 3.45459V3.04459C15.93 4.22459 18 7.09459 18 10.4546C18 12.5346 17.2 14.4246 15.9 15.8446ZM9 18.3846C5.05 17.8946 2 14.5346 2 10.4546C2 9.83459 2.08 9.23459 2.21 8.66459L7 13.4546V14.4546C7 14.985 7.21071 15.4937 7.58579 15.8688C7.96086 16.2439 8.46957 16.4546 9 16.4546M10 0.45459C8.68678 0.45459 7.38642 0.713248 6.17317 1.21579C4.95991 1.71834 3.85752 2.45494 2.92893 3.38352C1.05357 5.25889 0 7.80242 0 10.4546C0 13.1068 1.05357 15.6503 2.92893 17.5257C3.85752 18.4542 4.95991 19.1908 6.17317 19.6934C7.38642 20.1959 8.68678 20.4546 10 20.4546C12.6522 20.4546 15.1957 19.401 17.0711 17.5257C18.9464 15.6503 20 13.1068 20 10.4546C20 9.14137 19.7413 7.84101 19.2388 6.62776C18.7362 5.4145 17.9997 4.31211 17.0711 3.38352C16.1425 2.45494 15.0401 1.71834 13.8268 1.21579C12.6136 0.713248 11.3132 0.45459 10 0.45459Z" fill="black"/>
</svg>
